<?xml version="1.0" encoding="UTF-8"?>
<svg id="_图层_1" data-name="图层 1" xmlns="http://www.w3.org/2000/svg" viewBox="0 0 1600 320">
  <defs>
    <style>
      .cls-1 {
        fill: #fff;
      }

      .cls-2 {
        fill: #ed1c24;
      }
    </style>
  </defs>
  <g>
    <g id="_径向重复_" data-name="&amp;lt;径向重复&amp;gt;">
      <g>
        <path class="cls-1" d="M99.39,255.86l24.75-24.75,24.13,24.13c3.13,3.13,7.3,4.86,11.73,4.86s8.59-1.73,11.73-4.86l24.13-24.13,24.75,24.75-60.61,60.61-60.61-60.61Z"/>
        <path d="M124.14,234.64l9.41,9.41,12.95,12.95c3.6,3.61,8.4,5.59,13.5,5.59s9.89-1.99,13.5-5.59l12.95-12.95,9.41-9.41,10.61,10.61,10.61,10.61-28.54,28.53-28.54,28.54-28.54-28.54-28.54-28.53,10.61-10.61,10.61-10.61M195.86,227.57l-12.95,12.95-12.95,12.95c-2.75,2.75-6.36,4.13-9.96,4.13s-7.21-1.38-9.96-4.13l-12.95-12.95-12.95-12.95-14.14,14.14-14.14,14.14,32.07,32.07,32.07,32.07,32.07-32.07,32.07-32.07-14.14-14.14-14.14-14.14h0Z"/>
      </g>
    </g>
    <g id="_径向重复_-2" data-name="&amp;lt;径向重复&amp;gt;">
      <g>
        <path class="cls-1" d="M3.54,160l60.6-60.61,24.75,24.75-24.13,24.13c-3.13,3.13-4.86,7.3-4.86,11.73s1.73,8.6,4.86,11.73l24.13,24.13-24.75,24.75L3.54,160Z"/>
        <path d="M64.14,102.93l10.61,10.61,10.61,10.61-9.41,9.41-12.95,12.95c-3.61,3.6-5.59,8.4-5.59,13.5s1.99,9.89,5.59,13.5l12.95,12.95,9.41,9.41-10.61,10.61-10.61,10.61-28.53-28.54-28.54-28.54,28.54-28.54,28.53-28.54M64.14,95.86l-32.07,32.07L0,160l32.07,32.07,32.07,32.07,14.14-14.14,14.14-14.14-12.95-12.95-12.95-12.95c-2.75-2.75-4.13-6.36-4.13-9.96s1.38-7.21,4.13-9.96l12.95-12.95,12.95-12.95-14.14-14.14-14.14-14.14h0Z"/>
      </g>
    </g>
    <g id="_径向重复_-3" data-name="&amp;lt;径向重复&amp;gt;">
      <g>
        <path class="cls-1" d="M171.73,64.76c-3.13-3.13-7.3-4.86-11.73-4.86s-8.6,1.73-11.73,4.86l-24.13,24.13-24.75-24.75L160,3.54l60.61,60.6-24.75,24.75-24.13-24.13Z"/>
        <path d="M160,7.07l28.54,28.53,28.54,28.53-10.61,10.61-10.61,10.61-9.41-9.41-12.95-12.95c-3.6-3.61-8.4-5.59-13.5-5.59s-9.89,1.99-13.5,5.59l-12.95,12.95-9.41,9.41-10.61-10.61-10.61-10.61,28.54-28.53,28.54-28.53M160,0l-32.07,32.07-32.07,32.07,14.14,14.14,14.14,14.14,12.95-12.95,12.95-12.95c2.75-2.75,6.36-4.13,9.96-4.13s7.21,1.38,9.96,4.13l12.95,12.95,12.95,12.95,14.14-14.14,14.14-14.14-32.07-32.07L160,0h0Z"/>
      </g>
    </g>
    <g id="_径向重复_-4" data-name="&amp;lt;径向重复&amp;gt;">
      <g>
        <path class="cls-1" d="M231.11,195.86l24.13-24.13c3.13-3.13,4.86-7.3,4.86-11.73s-1.73-8.6-4.86-11.73l-24.13-24.13,24.75-24.75,60.6,60.61-60.6,60.61-24.75-24.75Z"/>
        <path d="M255.86,102.93l28.53,28.54,28.53,28.54-28.53,28.54-28.53,28.54-10.61-10.61-10.61-10.61,9.41-9.41,12.95-12.95c3.61-3.6,5.59-8.4,5.59-13.5s-1.99-9.89-5.59-13.5l-12.95-12.95-9.41-9.41,10.61-10.61,10.61-10.61M255.86,95.86l-14.14,14.14-14.14,14.14,12.95,12.95,12.95,12.95c2.75,2.75,4.13,6.36,4.13,9.96s-1.38,7.21-4.13,9.96l-12.95,12.95-12.95,12.95,14.14,14.14,14.14,14.14,32.07-32.07,32.07-32.07-32.07-32.07-32.07-32.07h0Z"/>
      </g>
    </g>
  </g>
  <g>
    <path class="cls-2" d="M739.39,64.14l60.61-60.6,60.61,60.6-24.75,24.75-24.13-24.13c-3.13-3.13-7.3-4.86-11.73-4.86s-8.6,1.73-11.73,4.86l-24.13,24.13-24.75-24.75Z"/>
    <path d="M800,7.07l28.54,28.53,28.54,28.53-10.61,10.61-10.61,10.61-9.41-9.41-12.95-12.95c-3.6-3.61-8.4-5.59-13.5-5.59s-9.89,1.99-13.5,5.59l-12.95,12.95-9.41,9.41-10.61-10.61-10.61-10.61,28.54-28.53,28.54-28.53M800,0l-32.07,32.07-32.07,32.07,14.14,14.14,14.14,14.14,12.95-12.95,12.95-12.95c2.75-2.75,6.36-4.13,9.96-4.13s7.21,1.38,9.96,4.13l12.95,12.95,12.95,12.95,14.14-14.14,14.14-14.14-32.07-32.07L800,0h0Z"/>
  </g>
  <g>
    <path class="cls-2" d="M323.54,160l60.6-60.61,24.75,24.75-24.13,24.13c-3.13,3.13-4.86,7.3-4.86,11.73s1.73,8.6,4.86,11.73l24.13,24.13-24.75,24.75-60.6-60.61Z"/>
    <path d="M384.14,102.93l10.61,10.61,10.61,10.61-9.41,9.41-12.95,12.95c-3.61,3.6-5.59,8.4-5.59,13.5s1.99,9.89,5.59,13.5l12.95,12.95,9.41,9.41-10.61,10.61-10.61,10.61-28.53-28.54-28.53-28.54,28.53-28.54,28.53-28.54M384.14,95.86l-32.07,32.07-32.07,32.07,32.07,32.07,32.07,32.07,14.14-14.14,14.14-14.14-12.95-12.95-12.95-12.95c-2.75-2.75-4.13-6.36-4.13-9.96s1.38-7.21,4.13-9.96l12.95-12.95,12.95-12.95-14.14-14.14-14.14-14.14h0Z"/>
  </g>
  <g>
    <path class="cls-2" d="M1191.11,195.86l24.13-24.13c3.13-3.13,4.86-7.3,4.86-11.73s-1.73-8.59-4.86-11.73l-24.13-24.13,24.75-24.75,60.61,60.61-60.61,60.61-24.75-24.75Z"/>
    <path d="M1215.86,102.93l28.53,28.54,28.54,28.54-28.54,28.54-28.53,28.54-10.61-10.61-10.61-10.61,9.41-9.41,12.95-12.95c3.61-3.6,5.59-8.4,5.59-13.5s-1.99-9.89-5.59-13.5l-12.95-12.95-9.41-9.41,10.61-10.61,10.61-10.61M1215.86,95.86l-14.14,14.14-14.14,14.14,12.95,12.95,12.95,12.95c2.75,2.75,4.13,6.36,4.13,9.96s-1.38,7.21-4.13,9.96l-12.95,12.95-12.95,12.95,14.14,14.14,14.14,14.14,32.07-32.07,32.07-32.07-32.07-32.07-32.07-32.07h0Z"/>
  </g>
  <g>
    <path class="cls-2" d="M1379.39,255.86l24.75-24.75,24.13,24.13c3.13,3.13,7.3,4.86,11.73,4.86s8.59-1.73,11.73-4.86l24.13-24.13,24.75,24.75-60.61,60.61-60.61-60.61Z"/>
    <path d="M1475.86,234.64l10.61,10.61,10.61,10.61-28.54,28.53-28.54,28.54-28.54-28.54-28.54-28.53,10.61-10.61,10.61-10.61,9.41,9.41,12.95,12.95c3.6,3.61,8.4,5.59,13.5,5.59s9.89-1.99,13.5-5.59l12.95-12.95,9.41-9.41M1475.86,227.57l-12.95,12.95-12.95,12.95c-2.75,2.75-6.36,4.13-9.96,4.13s-7.21-1.38-9.96-4.13l-12.95-12.95-12.95-12.95-14.14,14.14-14.14,14.14,32.07,32.07,32.07,32.07,32.07-32.07,32.07-32.07-14.14-14.14-14.14-14.14h0Z"/>
  </g>
</svg>