<?xml version="1.0" encoding="UTF-8"?>
<svg id="_图层_1" data-name="图层 1" xmlns="http://www.w3.org/2000/svg" viewBox="0 0 256 256">
  <defs>
    <style>
      .cls-1 {
        fill: #2f0607;
      }

      .cls-2 {
        fill: #be161d;
      }

      .cls-3 {
        fill: #8e1116;
      }

      .cls-4 {
        fill: #5f0b0e;
      }

      .cls-5 {
        fill: #ed1c24;
      }
    </style>
  </defs>
  <polygon points="18.67 242.17 106.36 237.72 244.25 247.95 137.57 245.48 18.67 242.17"/>
  <path d="M55.68,239.69l79.57,7.43s-14.52-3.44-12.28-4.4c2.98-1.28,78.5,4.69,78.5,4.69l-95.48-11.42s10.91,4.47,7.24,5.19c-5.62,1.1-57.54-1.48-57.54-1.48Z"/>
  <path d="M66.77,238.31l52.15,1.14s-9.55-.96-8.09-1.36c1.93-.52,51.42.16,51.42.16l-62.62-2.27s7.19,1.41,4.81,1.74c-3.66.51-37.67.59-37.67.59Z"/>
  <g>
    <path class="cls-5" d="M197.91,22.47l47.35,1.1-50.33-3.74-50.33-3.74-21.6-2.58c15.14.01,40.27.36,40.27.36l-53.51-1.94-2.77-.33s.23.09.6.25l-6.94-.25s7.19,1.41,4.81,1.74c-3.66.51-37.67.59-37.67.59l19.53.43-24.48,1.24c-3.77-.17-6.14-.29-6.14-.29l4.19.39-41.2,2.09,90.58,2.52,25.99,2.43s-3.79-.9-7.19-1.9l9.52.26,55.78,1.3c4.99.38,8.11.63,8.11.63l-4.56-.55Z"/>
    <path class="cls-2" d="M102.88,44.27l5.86.22c-.3-.13-.46-.2-.46-.2l2.33.27,39.48,1.5,5.7.22s-18.3-.16-30.41-.17l8,.93,10.24,1.2,42.52,3.14,42.52,3.14-41.01-.94,3.35.43s-3.03-.21-7.03-.51l-48.32-1.11-1.8-.05-6.44-.18c2.73.81,5.27,1.51,5.27,1.51l-22.5-1.98-21.66-.6-56.8-1.56,34.85-1.76-3.16-.32s2.17.08,5.19.22l20.71-1.05-14.72-.38s28.95-.14,31.88-.55c1.91-.27-3.56-1.4-3.56-1.4Z"/>
    <path class="cls-3" d="M105.13,76.94l4.77.19c-.22-.1-.32-.15-.32-.15l1.89.21,32.22,1.29,4.64.19s-11.47.03-20.56.02l6.53.74,8.36.94,34.7,2.54,34.7,2.54-34.67-.79,2.14.31s-2.94-.17-5.94-.4l-40.85-.93-1.52-.04-5.44-.15c2.04.6,3.35,1.12,3.35,1.12l-19.02-1.54-18.32-.5-48.03-1.31,28.5-1.43-2.14-.25s1.98.05,4.24.15l16.94-.85-9.92-.34s23.89-.2,26.09-.51c1.43-.2-2.32-1.07-2.32-1.07Z"/>
    <path class="cls-4" d="M107.37,109.61l3.68.16c-.15-.06-.18-.1-.18-.1l1.45.15,24.95,1.09,3.58.16s-4.64.22-10.7.21l5.06.54,6.47.69,26.88,1.94,26.88,1.94-28.34-.63.93.2s-2.86-.13-4.85-.28l-33.39-.75-1.24-.03-4.44-.12c1.36.4,1.43.73,1.43.73l-15.54-1.1-14.97-.4-39.26-1.05,22.15-1.09-1.11-.18s1.78,0,3.29.08l13.17-.65-5.11-.29s18.83-.27,20.3-.47c.96-.13-1.08-.73-1.08-.73Z"/>
    <path class="cls-1" d="M109.62,142.28l2.6.13c-.07-.03-.04-.04-.04-.04l1.01.1,17.68.89,2.53.13s2.19.41-.84.4l3.59.34,4.59.43,19.06,1.34,19.06,1.34-22-.48-.28.08s-2.77-.09-3.77-.17l-25.92-.56-.96-.02-3.45-.09c.68.2-.49.33-.49.33l-12.06-.65-11.63-.3-30.49-.79,15.8-.76-.08-.11s1.59-.03,2.34,0l9.4-.45-.31-.25s13.77-.33,14.51-.43c.48-.07.16-.4.16-.4Z"/>
    <polygon points="79.83 176.4 111.87 174.94 124.46 175.78 137.06 176.61 162.25 178.28 123.27 177.47 101.55 176.93 79.83 176.4"/>
  </g>
</svg>